HIERARCHY
ROOT root
{
	OFFSET 0.000000 0.000000 0.000000
	CHANNELS 6 Xposition Yposition Zposition Zrotation Yrotation Xrotation
	JOINT lhip
	{
		OFFSET 0.058581 -0.082280 -0.017664
		CHANNELS 3 Zrotation Yrotation Xrotation
		JOINT lknee
		{
			OFFSET 0.043451 -0.386469 0.008037
			CHANNELS 3 Zrotation Yrotation Xrotation
			JOINT lankle
			{
				OFFSET -0.014790 -0.426874 -0.037428
				CHANNELS 3 Zrotation Yrotation Xrotation
				JOINT ltoe
				{
					OFFSET 0.041054 -0.060286 0.122042
					CHANNELS 3 Zrotation Yrotation Xrotation
					End Site
					{
						OFFSET 0.000000 0.000000 0.000000
					}
				}
			}
		}
	}
	JOINT rhip
	{
		OFFSET -0.060310 -0.090513 -0.013543
		CHANNELS 3 Zrotation Yrotation Xrotation
		JOINT rknee
		{
			OFFSET -0.043257 -0.383688 -0.004843
			CHANNELS 3 Zrotation Yrotation Xrotation
			JOINT rankle
			{
				OFFSET 0.019056 -0.420046 -0.034562
				CHANNELS 3 Zrotation Yrotation Xrotation
				JOINT rtoe
				{
					OFFSET -0.034840 -0.062106 0.130323
					CHANNELS 3 Zrotation Yrotation Xrotation
					End Site
					{
						OFFSET 0.000000 0.000000 0.000000
					}
				}
			}
		}
	}
	JOINT lowerback
	{
		OFFSET 0.004439 0.124404 -0.038385
		CHANNELS 3 Zrotation Yrotation Xrotation
		JOINT upperback
		{
			OFFSET 0.004488 0.137956 0.026820
			CHANNELS 3 Zrotation Yrotation Xrotation
			JOINT chest
			{
				OFFSET -0.002265 0.056032 0.002855
				CHANNELS 3 Zrotation Yrotation Xrotation
				JOINT lowerneck
				{
					OFFSET -0.013390 0.211636 -0.033468
					CHANNELS 3 Zrotation Yrotation Xrotation
					JOINT upperneck
					{
						OFFSET 0.010113 0.088937 0.050410
						CHANNELS 3 Zrotation Yrotation Xrotation
						End Site
						{
							OFFSET 0.000000 0.000000 0.000000
						}
					}
				}
				JOINT lclavicle
				{
					OFFSET 0.071702 0.114000 -0.018898
					CHANNELS 3 Zrotation Yrotation Xrotation
					JOINT lshoulder
					{
						OFFSET 0.122921 0.045205 -0.019046
						CHANNELS 3 Zrotation Yrotation Xrotation
						JOINT lelbow
						{
							OFFSET 0.255332 -0.015649 -0.022946
							CHANNELS 3 Zrotation Yrotation Xrotation
							JOINT lwrist
							{
								OFFSET 0.265709 0.012698 -0.007375
								CHANNELS 3 Zrotation Yrotation Xrotation
								End Site
								{
									OFFSET 0.000000 0.000000 0.000000
								}
							}
						}
					}
				}
				JOINT rclavicle
				{
					OFFSET -0.082954 0.112472 -0.023707
					CHANNELS 3 Zrotation Yrotation Xrotation
					JOINT rshoulder
					{
						OFFSET -0.113228 0.046853 -0.008472
						CHANNELS 3 Zrotation Yrotation Xrotation
						JOINT relbow
						{
							OFFSET -0.260127 -0.014369 -0.031269
							CHANNELS 3 Zrotation Yrotation Xrotation
							JOINT rwrist
							{
								OFFSET -0.269108 0.006794 -0.006027
								CHANNELS 3 Zrotation Yrotation Xrotation
								End Site
								{
									OFFSET 0.000000 0.000000 0.000000
								}
							}
						}
					}
				}
			}
		}
	}
}
MOTION
Frames: 8
Frame Time: 0.033333
1.527645 0.317083 0.982991 89.609783 1.262519 96.497121 -2.977176 0.621134 -1.858941 -1.450213 -6.748232 3.265633 7.380531 13.256469 -17.500497 0.000000 -0.000000 0.000000 4.051161 -1.036185 -9.832560 1.866228 -1.361497 16.750895 0.198034 -6.943183 -14.397790 0.000000 -0.000000 0.000000 3.156433 -0.504813 5.397582 0.708133 -0.153545 -6.978186 0.169658 -0.976677 0.522340 2.070464 5.032503 -17.224640 -2.768368 -1.235812 7.242899 -28.846247 5.993722 -2.705086 -55.995478 -2.658917 13.374928 0.444262 -39.477919 21.538382 -1.316093 -7.023337 0.506455 27.277889 -2.303984 -3.366180 56.175089 1.721327 18.147155 -10.348525 38.692533 5.457582 0.878484 5.232441 -2.778285 
1.530807 0.317561 0.981916 89.478047 1.307019 96.817946 -2.990043 0.527219 -2.130839 -1.483934 -6.786765 3.712038 7.322001 13.475187 -18.191158 0.000000 -0.000000 0.000000 3.985753 -1.014299 -9.876507 1.959578 -1.146391 16.736907 0.443091 -6.776844 -14.875766 0.000000 -0.000000 0.000000 3.254805 -0.312834 5.520661 0.667610 -0.017235 -6.927971 0.160748 -0.894142 0.669163 2.110100 5.002969 -17.234959 -2.911881 -1.209028 6.709445 -29.009428 6.143730 -2.913058 -55.849543 -2.411034 13.267724 0.556391 -39.410768 21.236902 -1.106013 -6.912096 0.625311 27.280836 -2.374362 -3.455349 55.973405 1.673694 18.075662 -10.342695 38.921990 5.319775 0.757813 5.213903 -2.750914 
1.534437 0.318163 0.981031 89.347215 1.328373 96.978827 -3.055525 0.449010 -2.232294 -1.490533 -6.669745 4.091685 7.320945 13.630803 -18.601816 0.000000 -0.000000 0.000000 3.995586 -0.946388 -9.817394 1.912052 -1.051216 16.808892 0.480151 -6.756670 -15.202574 0.000000 -0.000000 0.000000 3.245425 -0.224448 5.748471 0.636391 0.095310 -6.826073 0.177410 -0.780749 0.753014 2.175961 4.946707 -17.269058 -2.947166 -1.176419 6.429624 -29.065765 6.245971 -2.926877 -55.746987 -2.172345 13.113392 0.852821 -39.319814 20.812785 -1.009454 -6.821939 0.614534 27.327084 -2.257359 -3.412740 55.839198 1.735678 17.977694 -10.462539 38.934225 5.044042 0.701763 5.181478 -2.772492 
1.538547 0.318858 0.980670 89.248664 1.329966 97.095531 -3.028809 0.511923 -2.255354 -1.645296 -6.597117 4.405866 7.278390 13.510827 -18.682716 0.000000 -0.000000 0.000000 4.020511 -0.881201 -9.723727 1.823328 -1.021697 16.842752 0.385528 -6.864877 -15.205111 0.000000 -0.000000 0.000000 3.189103 -0.189821 6.041790 0.628966 0.170867 -6.747281 0.219400 -0.750071 0.838081 2.223034 4.995822 -17.334033 -2.977651 -1.151183 6.291348 -29.061075 6.360276 -2.932517 -55.671818 -1.983731 12.976324 1.013381 -38.907363 20.500334 -0.754166 -6.682278 0.230519 27.432082 -2.079349 -3.340242 55.690714 2.029007 18.020068 -10.523661 38.654449 4.904999 0.540748 5.170414 -2.790313 
1.543259 0.319699 0.980562 89.199956 1.227889 97.356354 -3.194319 0.507204 -2.080750 -1.560599 -6.695668 4.037879 7.297829 13.436530 -18.208493 0.000000 -0.000000 0.000000 4.011173 -0.695674 -9.782308 1.642771 -0.926068 16.855016 0.182540 -7.211031 -15.106921 0.000000 -0.000000 0.000000 3.065285 -0.198957 6.085342 0.608394 0.230342 -6.618949 0.233126 -0.682324 0.893832 2.240748 5.007209 -17.356385 -3.034666 -1.228252 6.181477 -28.970210 6.353207 -2.835576 -55.597740 -1.936291 12.892598 1.205823 -38.217734 20.206800 -0.830299 -6.605473 0.234355 27.489472 -1.894931 -3.379327 55.778422 2.265018 18.024300 -10.692104 38.165277 4.689307 0.501110 5.101280 -2.661603 
1.548127 0.320709 0.980639 89.349606 1.145158 97.637549 -3.368366 0.493606 -2.117729 -1.508208 -6.784113 4.012594 7.312687 13.380331 -17.838765 0.000000 -0.000000 0.000000 4.109189 -0.441203 -9.968507 1.378379 -0.937523 16.998426 -0.126927 -7.725281 -14.997585 0.000000 -0.000000 0.000000 2.985261 -0.345857 6.089439 0.624654 0.175426 -6.529363 0.265621 -0.701950 0.923560 2.238162 5.009541 -17.229248 -3.113399 -1.128943 6.036365 -28.858141 6.278216 -2.720605 -55.590257 -1.955479 12.781448 1.468752 -37.333386 19.912132 -1.128654 -6.476337 0.383933 27.500664 -1.572075 -3.350508 55.906474 2.632566 18.056297 -10.810958 37.493157 4.513335 0.642006 4.994531 -2.538777 
1.552668 0.321943 0.980901 89.549696 1.004276 97.977065 -3.613528 0.366789 -2.318072 -1.499729 -6.728387 4.136661 7.340319 13.323448 -17.542480 0.000000 -0.000000 0.000000 4.102688 -0.174785 -10.294258 1.166036 -0.858172 17.302974 -0.474517 -8.214831 -14.936836 0.000000 -0.000000 0.000000 2.913528 -0.417803 6.234107 0.651689 0.083656 -6.560506 0.236552 -0.787464 0.940378 2.182895 5.070156 -17.385799 -3.244033 -1.160476 5.985064 -28.783236 6.159512 -2.613560 -55.454969 -2.013714 12.725045 1.636736 -36.660087 19.704279 -1.409851 -6.377174 0.521651 27.550154 -1.323166 -3.388060 56.047736 2.974282 18.117413 -10.992315 37.011708 4.137520 0.706775 4.912730 -2.536324 
1.557227 0.323226 0.981069 89.727073 0.892506 98.225387 -3.794598 0.266448 -2.332290 -1.473687 -6.951166 4.146592 7.335636 13.312036 -17.282619 0.000000 -0.000000 0.000000 4.067087 -0.038513 -10.530097 1.004520 -0.800547 17.661148 -0.716463 -8.461618 -14.982761 0.000000 -0.000000 0.000000 2.909353 -0.476977 6.561189 0.648823 0.049507 -6.605916 0.217584 -0.845277 0.888192 2.078627 5.139056 -17.515818 -3.375407 -1.221664 5.862409 -28.706403 5.842211 -2.533738 -55.304729 -2.115718 12.708813 1.790380 -35.987647 19.469136 -1.563920 -6.366520 0.584871 27.583925 -1.026806 -3.406136 56.174103 3.203785 18.089827 -11.240393 36.651862 3.641950 0.637903 4.875014 -2.688340 
